<svg width="32" height="32" viewBox="0 0 32 32" fill="none" xmlns="http://www.w3.org/2000/svg">
<path fill-rule="evenodd" clip-rule="evenodd" d="M6.6 6C5.16406 6 4 7.16406 4 8.6V21.4C4 22.8359 5.16406 24 6.6 24H13C14.039 24 15 24.7326 15 26H17C17 25.2741 17.2601 24.8142 17.6152 24.5182C17.9943 24.2023 18.5741 24 19.3 24H25.4C26.8359 24 28 22.8359 28 21.4V8.6C28 7.16406 26.8359 6 25.4 6H20.4C18.9646 6 17.59 6.57608 16.5781 7.5982C16.3653 7.81311 16.1723 8.04403 16 8.28812C15.8277 8.04403 15.6347 7.81311 15.4219 7.5982C14.41 6.57608 13.0354 6 11.6 6H6.6ZM17 22.5363C17.6961 22.1664 18.4969 22 19.3 22H25.4C25.7314 22 26 21.7314 26 21.4V8.6C26 8.26863 25.7314 8 25.4 8H20.4C19.5015 8 18.6378 8.36043 17.9994 9.00529C17.3606 9.6505 17 10.5277 17 11.4444V22.5363ZM15 22.5205V11.4444C15 10.5277 14.6394 9.6505 14.0006 9.00529C13.3622 8.36043 12.4985 8 11.6 8H6.6C6.26863 8 6 8.26863 6 8.6V21.4C6 21.7314 6.26863 22 6.6 22H13C13.6875 22 14.3846 22.1787 15 22.5205Z" fill="#004A43"/>
</svg>
