<svg width="32" height="32" viewBox="0 0 32 32" fill="none" xmlns="http://www.w3.org/2000/svg">
<path fill-rule="evenodd" clip-rule="evenodd" d="M12.6 4C11.1641 4 10 5.16406 10 6.6V9H5.6C4.16406 9 3 10.1641 3 11.6V25.4C3 26.8359 4.16406 28 5.6 28H26.4C27.8359 28 29 26.8359 29 25.4V11.6C29 10.1641 27.8359 9 26.4 9H22V6.6C22 5.16406 20.8359 4 19.4 4H12.6ZM20 9V6.6C20 6.26863 19.7314 6 19.4 6H12.6C12.2686 6 12 6.26863 12 6.6V9H20ZM5.6 26C5.26863 26 5 25.7314 5 25.4V11.6C5 11.2686 5.26863 11 5.6 11H26.4C26.7314 11 27 11.2686 27 11.6V25.4C27 25.7314 26.7314 26 26.4 26H5.6Z" fill="#004A43"/>
</svg>
