<svg width="32" height="32" viewBox="0 0 32 32" fill="none" xmlns="http://www.w3.org/2000/svg">
<path fill-rule="evenodd" clip-rule="evenodd" d="M12.6 4C11.1641 4 10 5.16406 10 6.6V9H5.6C4.16406 9 3 10.1641 3 11.6V14H29V11.6C29 10.1641 27.8359 9 26.4 9H22V6.6C22 5.16406 20.8359 4 19.4 4H12.6ZM20 9V6.6C20 6.26863 19.7314 6 19.4 6H12.6C12.2686 6 12 6.26863 12 6.6V9H20Z" fill="#004A43"/>
<path d="M3 16H29V25.4C29 26.8359 27.8359 28 26.4 28H5.6C4.16406 28 3 26.8359 3 25.4V16Z" fill="#004A43"/>
<path fill-rule="evenodd" clip-rule="evenodd" d="M10 6.6C10 5.16406 11.1641 4 12.6 4H19.4C20.8359 4 22 5.16406 22 6.6V9H26.4C27.8359 9 29 10.1641 29 11.6V25.4C29 26.8359 27.8359 28 26.4 28H5.6C4.16406 28 3 26.8359 3 25.4V11.6C3 10.1641 4.16406 9 5.6 9H10V6.6ZM20 6.6V9H12V6.6C12 6.26863 12.2686 6 12.6 6H19.4C19.7314 6 20 6.26863 20 6.6Z" fill="#004A43"/>
</svg>
