<svg width="32" height="32" viewBox="0 0 32 32" fill="none" xmlns="http://www.w3.org/2000/svg">
<path fill-rule="evenodd" clip-rule="evenodd" d="M26.7762 13.7863C26.6326 13.0788 26.4153 12.3829 26.1346 11.7181C25.8604 11.0662 25.5176 10.4376 25.1204 9.85037C24.7272 9.26833 24.2757 8.71991 23.779 8.22324C23.2809 7.72526 22.7338 7.27385 22.1504 6.88065C21.5631 6.48227 20.9344 6.1421 20.2824 5.86531C19.6175 5.58592 18.9216 5.36733 18.2153 5.22506C17.4909 5.07631 16.7458 5 16.0006 5C15.2542 5 14.5091 5.07631 13.7847 5.22506C13.0784 5.36733 12.3825 5.58592 11.7176 5.86531C11.0656 6.1421 10.4369 6.48227 9.84836 6.88065C9.26624 7.27385 8.71906 7.72526 8.22103 8.22324C7.723 8.71991 7.27283 9.26833 6.87958 9.85037C6.48115 10.4376 6.13965 11.0662 5.86411 11.7181C5.58341 12.3829 5.36738 13.0788 5.2225 13.7863C5.07503 14.508 5 15.2543 5 15.9994C5 16.7457 5.07503 17.492 5.2225 18.2163C5.36738 18.9212 5.58341 19.6184 5.86411 20.2819C6.13965 20.9338 6.48115 21.5637 6.87958 22.1522C7.27283 22.7343 7.723 23.2801 8.22103 23.7781C8.71906 24.276 9.26624 24.7261 9.84836 25.1193C10.4369 25.5177 11.0656 25.8592 11.7176 26.1347C12.3825 26.4154 13.0784 26.6301 13.7847 26.7749C14.5091 26.925 15.2542 27 16.0006 27C16.7458 27 17.4909 26.925 18.2153 26.7749C18.9216 26.6301 19.6175 26.4154 20.2824 26.1347C20.9344 25.8592 21.5631 25.5177 22.1504 25.1193C22.7338 24.7261 23.2809 24.276 23.779 23.7781C24.2757 23.2801 24.7272 22.7343 25.1204 22.1522C25.5176 21.5637 25.8604 20.9338 26.1346 20.2819C26.4153 19.6184 26.6326 18.9212 26.7762 18.2163C26.925 17.492 27 16.7457 27 15.9994C27 15.2543 26.925 14.508 26.7762 13.7863ZM25.3921 15.9062C25.2562 15.8765 22.0766 15.1923 18.8491 15.5984C18.7819 15.438 18.7146 15.2763 18.646 15.1146C18.4494 14.6542 18.2398 14.1989 18.0212 13.7514C21.7312 12.2368 23.237 10.0586 23.2551 10.0327C24.5719 11.634 25.3701 13.6776 25.3921 15.9062ZM22.2047 8.95014C22.1814 8.98636 20.8438 11.0235 17.2968 12.3519C15.6915 9.40155 13.927 7.05785 13.786 6.8716C14.4962 6.69957 15.2374 6.60644 16.0006 6.60644C18.3783 6.60644 20.5489 7.49374 22.2047 8.95014ZM13.7498 6.87936C13.7498 6.88065 13.7485 6.88065 13.7485 6.88065C13.7485 6.88065 13.7369 6.88324 13.7201 6.88712C13.7291 6.88453 13.7395 6.88324 13.7498 6.87936ZM11.9918 7.50409C12.116 7.67223 13.8546 10.0263 15.4806 12.9171C10.9699 14.1161 7.05421 14.0683 6.80584 14.0644C7.41642 11.1542 9.37102 8.7419 11.9918 7.50409ZM6.60534 15.9994C6.60534 15.8998 6.61051 15.8015 6.6131 15.7032C6.77868 15.707 11.4214 15.8118 16.2581 14.3645C16.5271 14.8909 16.7846 15.4264 17.02 15.9606C16.8958 15.9955 16.7729 16.033 16.65 16.0731C11.5805 17.7119 9.00882 22.2725 9.00882 22.2725C9.00882 22.2725 9.0127 22.2764 9.0127 22.2777C7.51602 20.613 6.60534 18.4129 6.60534 15.9994ZM16.0006 25.3936C13.7265 25.3936 11.6413 24.5852 10.0152 23.2413C10.1394 23.3409 10.2261 23.4056 10.2261 23.4056C10.2261 23.4056 12.0268 19.4787 17.5982 17.5372C17.6189 17.5295 17.6396 17.523 17.6616 17.5166C18.9837 20.9519 19.5283 23.8285 19.668 24.6498C18.5412 25.1284 17.3007 25.3936 16.0006 25.3936ZM21.25 23.791C21.1543 23.2245 20.6537 20.4669 19.4209 17.082C22.4543 16.5969 25.0816 17.4286 25.2757 17.492C24.8578 20.1086 23.3586 22.3669 21.25 23.791Z" fill="#F1F6F6"/>
</svg>
