<svg width="64" height="64" viewBox="0 0 64 64" fill="none" xmlns="http://www.w3.org/2000/svg">
<path d="M10.6667 10.6667C10.6667 9.25219 11.2286 7.89563 12.2288 6.89544C13.229 5.89525 14.5855 5.33334 16 5.33334H37.3333L53.3333 21.3333V53.3333C53.3333 54.7478 52.7714 56.1044 51.7712 57.1046C50.771 58.1048 49.4145 58.6667 48 58.6667H16C14.5855 58.6667 13.229 58.1048 12.2288 57.1046C11.2286 56.1044 10.6667 54.7478 10.6667 53.3333V32V23.3333" stroke="#58D1BD" stroke-width="2" stroke-linecap="round" stroke-linejoin="round"/>
<path d="M37.3333 5.33334V21.3333H53.3333" stroke="#58D1BD" stroke-width="2" stroke-linecap="round" stroke-linejoin="round"/>
<path d="M42.6667 34.6667H21.3333" stroke="#58D1BD" stroke-width="2" stroke-linecap="round" stroke-linejoin="round"/>
<path d="M42.6667 45.3333H21.3333" stroke="#58D1BD" stroke-width="2" stroke-linecap="round" stroke-linejoin="round"/>
<path d="M26.6667 24H24H21.3333" stroke="#58D1BD" stroke-width="2" stroke-linecap="round" stroke-linejoin="round"/>
<path d="M4.84 21V12.36H7.636C8.06 12.36 8.404 12.376 8.668 12.408C9.344 12.488 9.926 12.726 10.414 13.122C10.906 13.518 11.28 14.026 11.536 14.646C11.792 15.262 11.92 15.94 11.92 16.68C11.92 17.42 11.792 18.1 11.536 18.72C11.28 19.336 10.906 19.842 10.414 20.238C9.926 20.634 9.344 20.872 8.668 20.952C8.404 20.984 8.06 21 7.636 21H4.84ZM7.636 19.464C8.06 19.464 8.372 19.444 8.572 19.404C8.932 19.332 9.232 19.162 9.472 18.894C9.716 18.622 9.896 18.294 10.012 17.91C10.132 17.522 10.192 17.112 10.192 16.68C10.192 16.236 10.13 15.82 10.006 15.432C9.886 15.044 9.704 14.718 9.46 14.454C9.22 14.19 8.924 14.024 8.572 13.956C8.372 13.916 8.06 13.896 7.636 13.896H6.496V19.464H7.636Z" fill="#004A43"/>
<path d="M17.0675 21.18C16.2155 21.18 15.4735 20.994 14.8415 20.622C14.2095 20.246 13.7235 19.718 13.3835 19.038C13.0475 18.358 12.8795 17.572 12.8795 16.68C12.8795 15.788 13.0475 15.002 13.3835 14.322C13.7235 13.642 14.2095 13.116 14.8415 12.744C15.4735 12.368 16.2155 12.18 17.0675 12.18C17.9195 12.18 18.6615 12.368 19.2935 12.744C19.9255 13.116 20.4095 13.642 20.7455 14.322C21.0855 15.002 21.2555 15.788 21.2555 16.68C21.2555 17.572 21.0855 18.358 20.7455 19.038C20.4095 19.718 19.9255 20.246 19.2935 20.622C18.6615 20.994 17.9195 21.18 17.0675 21.18ZM17.1155 19.644C17.6435 19.644 18.0875 19.522 18.4475 19.278C18.8075 19.034 19.0775 18.69 19.2575 18.246C19.4375 17.802 19.5275 17.28 19.5275 16.68C19.5275 15.752 19.3155 15.026 18.8915 14.502C18.4675 13.978 17.8435 13.716 17.0195 13.716C16.4915 13.716 16.0475 13.838 15.6875 14.082C15.3275 14.326 15.0575 14.67 14.8775 15.114C14.6975 15.558 14.6075 16.08 14.6075 16.68C14.6075 17.608 14.8195 18.334 15.2435 18.858C15.6675 19.382 16.2915 19.644 17.1155 19.644Z" fill="#004A43"/>
<path d="M26.1613 21.18C25.3093 21.18 24.5673 20.994 23.9353 20.622C23.3033 20.246 22.8173 19.718 22.4773 19.038C22.1413 18.358 21.9733 17.572 21.9733 16.68C21.9733 15.788 22.1413 15.002 22.4773 14.322C22.8173 13.642 23.3033 13.116 23.9353 12.744C24.5673 12.368 25.3093 12.18 26.1613 12.18C26.8133 12.18 27.4013 12.29 27.9253 12.51C28.4493 12.73 28.8933 13.046 29.2573 13.458C29.6253 13.866 29.9013 14.352 30.0853 14.916L28.4413 15.372C28.2773 14.84 28.0033 14.432 27.6193 14.148C27.2353 13.86 26.7493 13.716 26.1613 13.716C25.6213 13.716 25.1673 13.838 24.7993 14.082C24.4313 14.322 24.1533 14.664 23.9653 15.108C23.7813 15.548 23.6893 16.072 23.6893 16.68C23.6893 17.288 23.7813 17.814 23.9653 18.258C24.1533 18.698 24.4313 19.04 24.7993 19.284C25.1673 19.524 25.6213 19.644 26.1613 19.644C26.7493 19.644 27.2353 19.502 27.6193 19.218C28.0033 18.93 28.2773 18.52 28.4413 17.988L30.0853 18.444C29.9013 19.008 29.6253 19.496 29.2573 19.908C28.8933 20.316 28.4493 20.63 27.9253 20.85C27.4013 21.07 26.8133 21.18 26.1613 21.18Z" fill="#004A43"/>
</svg>
