<svg width="32" height="32" viewBox="0 0 32 32" fill="none" xmlns="http://www.w3.org/2000/svg">
<path fill-rule="evenodd" clip-rule="evenodd" d="M16 4C13.2386 4 11 6.23858 11 9C11 11.7614 13.2386 14 16 14C18.7614 14 21 11.7614 21 9C21 6.23858 18.7614 4 16 4ZM13 9C13 7.34315 14.3431 6 16 6C17.6569 6 19 7.34315 19 9C19 10.6569 17.6569 12 16 12C14.3431 12 13 10.6569 13 9Z" fill="#004A43"/>
<path fill-rule="evenodd" clip-rule="evenodd" d="M9.6 16C8.16406 16 7 17.1641 7 18.6V25.4C7 26.8359 8.16406 28 9.6 28H22.4C23.8359 28 25 26.8359 25 25.4V18.6C25 17.1641 23.8359 16 22.4 16H9.6ZM9 18.6C9 18.2686 9.26863 18 9.6 18H22.4C22.7314 18 23 18.2686 23 18.6V25.4C23 25.7314 22.7314 26 22.4 26H9.6C9.26863 26 9 25.7314 9 25.4V18.6Z" fill="#004A43"/>
</svg>
