<svg width="32" height="32" viewBox="0 0 32 32" fill="none" xmlns="http://www.w3.org/2000/svg">
<path fill-rule="evenodd" clip-rule="evenodd" d="M6.6 6C5.16406 6 4 7.16406 4 8.6V21.4C4 22.8359 5.16406 24 6.6 24H13C14.039 24 15 24.7326 15 26H17C17 25.2741 17.2601 24.8142 17.6152 24.5182C17.9943 24.2023 18.5741 24 19.3 24H25.4C26.8359 24 28 22.8359 28 21.4V8.6C28 7.16406 26.8359 6 25.4 6H20.4C18.9646 6 17.59 6.57608 16.5781 7.5982C16.3653 7.81311 16.1723 8.04403 16 8.28812C15.8277 8.04403 15.6347 7.81311 15.4219 7.5982C14.41 6.57608 13.0354 6 11.6 6H6.6Z" fill="#004A43"/>
</svg>
