<svg width="32" height="32" viewBox="0 0 32 32" fill="none" xmlns="http://www.w3.org/2000/svg">
<path fill-rule="evenodd" clip-rule="evenodd" d="M15.636 10.4556C16.0313 11.0376 16.2301 11.7307 16.2301 12.5402C16.2301 13.3733 16.0313 14.0442 15.6311 14.5503C15.4049 14.8341 15.0755 15.0943 14.6392 15.3284C15.3017 15.5835 15.8001 15.985 16.1394 16.5342C16.4762 17.0822 16.644 17.7505 16.644 18.5352C16.644 19.3434 16.4526 20.0705 16.0661 20.7113C15.8212 21.1364 15.5142 21.496 15.1476 21.7864C14.7337 22.1199 14.2465 22.3474 13.6822 22.4716C13.118 22.5959 12.5077 22.656 11.8477 22.656H6V9H12.2716C13.855 9.02616 14.9748 9.51004 15.636 10.4556ZM8.58767 11.3723V14.3855H11.7433C12.3051 14.3855 12.7637 14.2717 13.1167 14.0455C13.466 13.8206 13.6437 13.4204 13.6437 12.8475C13.6437 12.2106 13.4113 11.7908 12.9464 11.5855C12.545 11.4443 12.0342 11.3723 11.4127 11.3723H8.58767ZM8.58767 16.6441V20.285H11.7384C12.3014 20.285 12.7401 20.2052 13.0533 20.0457C13.6226 19.7475 13.9059 19.1799 13.9059 18.3416C13.9059 17.6289 13.6325 17.1424 13.0807 16.8756C12.7712 16.7278 12.3387 16.6493 11.7831 16.6441H8.58767ZM24.4903 12.7638C25.1614 13.079 25.7133 13.5773 26.147 14.2574C26.5435 14.8576 26.7983 15.5534 26.9139 16.3446C26.981 16.8089 27.0096 17.4772 26.9972 18.3495H20.006C20.047 19.363 20.3788 20.0731 21.0102 20.4799C21.3943 20.7336 21.8554 20.8591 22.3948 20.8591C22.964 20.8591 23.4301 20.7061 23.7868 20.3975C23.9832 20.2301 24.1547 19.9986 24.3039 19.7017H26.8654C26.7983 20.3007 26.4876 20.9088 25.9357 21.5287C25.0769 22.5096 23.8726 23 22.3264 23C21.0488 23 19.9202 22.5867 18.9471 21.7576C17.9677 20.9298 17.4817 19.5814 17.4817 17.7165C17.4817 15.9653 17.9217 14.6248 18.8016 13.6898C19.6841 12.7586 20.8275 12.2904 22.2332 12.2904C23.0684 12.2904 23.8216 12.4474 24.4903 12.7638ZM20.7368 15.0447C20.3826 15.4291 20.1589 15.951 20.0681 16.6075H24.3921C24.3474 15.9065 24.1224 15.3755 23.7247 15.012C23.322 14.6497 22.8261 14.4679 22.2345 14.4679C21.5919 14.4679 21.091 14.6602 20.7368 15.0447ZM19.4193 11.337H24.98V9.63821H19.4193V11.337Z" fill="#F1F6F6"/>
</svg>
