<svg width="32" height="32" viewBox="0 0 32 32" fill="none" xmlns="http://www.w3.org/2000/svg">
<path fill-rule="evenodd" clip-rule="evenodd" d="M17.4432 3.7603C16.5693 3.17767 15.4307 3.17767 14.5568 3.7603L4.15858 10.6924C3.43476 11.175 3 11.9873 3 12.8573V26.3982C3 27.8351 4.16487 29 5.6018 29H26.3982C27.8351 29 29 27.8351 29 26.3982V12.8573C29 11.9873 28.5652 11.175 27.8414 10.6924L17.4432 3.7603ZM15.6662 5.4244C15.8683 5.28964 16.1317 5.28964 16.3338 5.4244L26.732 12.3565C26.8994 12.4681 27 12.656 27 12.8573V26.3982C27 26.7306 26.7306 27 26.3982 27H5.6018C5.26943 27 5 26.7306 5 26.3982V12.8573C5 12.656 5.10056 12.4681 5.26798 12.3565L15.6662 5.4244Z" fill="#004A43"/>
</svg>
