<svg width="32" height="32" viewBox="0 0 32 32" fill="none" xmlns="http://www.w3.org/2000/svg">
<path fill-rule="evenodd" clip-rule="evenodd" d="M6.50447 12.4131H10.4026V25.9987H6.50447V12.4131ZM8.35419 10.7138H8.32596C6.91486 10.7138 6 9.67525 6 8.3601C6 7.01806 6.94191 6 8.38123 6C9.81938 6 10.7037 7.01549 10.7319 8.35626C10.7319 9.6714 9.81938 10.7138 8.35419 10.7138ZM26 26H21.5797V18.9684C21.5797 17.1282 20.8883 15.8732 19.3678 15.8732C18.2048 15.8732 17.5581 16.7197 17.2571 17.538C17.1442 17.8299 17.1618 18.2384 17.1618 18.6482V26H12.7827C12.7827 26 12.8391 13.5451 12.7827 12.4131H17.1618V14.5453C17.4205 13.613 18.8198 12.2825 21.0529 12.2825C23.8234 12.2825 26 14.2379 26 18.4446V26Z" fill="#F1F6F6"/>
</svg>
