<svg width="64" height="64" viewBox="0 0 64 64" fill="none" xmlns="http://www.w3.org/2000/svg">
<path d="M10.6667 10.6667C10.6667 9.25219 11.2286 7.89563 12.2288 6.89544C13.229 5.89525 14.5855 5.33334 16 5.33334H37.3333L53.3333 21.3333V53.3333C53.3333 54.7478 52.7714 56.1044 51.7712 57.1046C50.771 58.1048 49.4145 58.6667 48 58.6667H16C14.5855 58.6667 13.229 58.1048 12.2288 57.1046C11.2286 56.1044 10.6667 54.7478 10.6667 53.3333V32V23.3333" stroke="#58D1BD" stroke-width="2" stroke-linecap="round" stroke-linejoin="round"/>
<path d="M37.3333 5.33334V21.3333H53.3333" stroke="#58D1BD" stroke-width="2" stroke-linecap="round" stroke-linejoin="round"/>
<path d="M42.6667 34.6667H21.3333" stroke="#58D1BD" stroke-width="2" stroke-linecap="round" stroke-linejoin="round"/>
<path d="M42.6667 45.3333H21.3333" stroke="#58D1BD" stroke-width="2" stroke-linecap="round" stroke-linejoin="round"/>
<path d="M26.6667 24H24H21.3333" stroke="#58D1BD" stroke-width="2" stroke-linecap="round" stroke-linejoin="round"/>
<path d="M4.84 21V12.36H8.488C8.764 12.36 9.004 12.376 9.208 12.408C9.956 12.524 10.514 12.832 10.882 13.332C11.254 13.828 11.44 14.456 11.44 15.216C11.44 15.972 11.254 16.6 10.882 17.1C10.51 17.6 9.952 17.908 9.208 18.024C9.004 18.056 8.764 18.072 8.488 18.072H6.472V21H4.84ZM8.416 16.548C8.644 16.548 8.828 16.528 8.968 16.488C9.268 16.408 9.48 16.248 9.604 16.008C9.732 15.764 9.796 15.5 9.796 15.216C9.796 14.932 9.732 14.67 9.604 14.43C9.48 14.186 9.268 14.024 8.968 13.944C8.828 13.904 8.644 13.884 8.416 13.884H6.472V16.548H8.416Z" fill="#004A43"/>
<path d="M12.6447 21V12.36H15.4407C15.8647 12.36 16.2087 12.376 16.4727 12.408C17.1487 12.488 17.7307 12.726 18.2187 13.122C18.7107 13.518 19.0847 14.026 19.3407 14.646C19.5967 15.262 19.7247 15.94 19.7247 16.68C19.7247 17.42 19.5967 18.1 19.3407 18.72C19.0847 19.336 18.7107 19.842 18.2187 20.238C17.7307 20.634 17.1487 20.872 16.4727 20.952C16.2087 20.984 15.8647 21 15.4407 21H12.6447ZM15.4407 19.464C15.8647 19.464 16.1767 19.444 16.3767 19.404C16.7367 19.332 17.0367 19.162 17.2767 18.894C17.5207 18.622 17.7007 18.294 17.8167 17.91C17.9367 17.522 17.9967 17.112 17.9967 16.68C17.9967 16.236 17.9347 15.82 17.8107 15.432C17.6907 15.044 17.5087 14.718 17.2647 14.454C17.0247 14.19 16.7287 14.024 16.3767 13.956C16.1767 13.916 15.8647 13.896 15.4407 13.896H14.3007V19.464H15.4407Z" fill="#004A43"/>
<path d="M22.7962 21H21.1642V12.36H26.4442V13.992H22.7962V15.864H25.7242V17.496H22.7962V21Z" fill="#004A43"/>
</svg>
